<svg width="45" height="32" viewBox="0 0 45 32" fill="none" xmlns="http://www.w3.org/2000/svg">
<rect x="0.5" y="0.5" width="44" height="30.7647" rx="4.79412" fill="#1A1A1A" stroke="#333333"/>
<path d="M18.5294 30.6767L43.6765 23.0664V26.7061C43.6765 28.899 41.8988 30.6767 39.7059 30.6767H18.5294Z" fill="#FD6020"/>
<path fill-rule="evenodd" clip-rule="evenodd" d="M38.9034 12.0586C40.2868 12.0586 41.0477 12.6985 41.0477 13.9074C41.1169 14.8318 40.4944 15.614 39.6643 15.7562L41.532 18.3873H40.0793L38.4883 15.8274H38.35V18.3873H37.174V12.0586H38.9034ZM38.35 14.9741H38.6958C39.4568 14.9741 39.8026 14.6185 39.8026 13.9785C39.8026 13.4097 39.4568 13.0541 38.6958 13.0541H38.35V14.9741ZM33.0928 18.3873H36.4131V17.3206H34.2687V15.614H36.3439V14.5474H34.2687V13.1252H36.4131V12.0586H33.0928V18.3873ZM29.634 16.3251L28.043 12.0586H26.7979L29.3573 18.5295H29.9799L32.5393 12.0586H31.2942L29.634 16.3251ZM15.5919 15.2585C15.5919 17.0362 16.9753 18.5295 18.7047 18.5295C19.2581 18.5295 19.7423 18.3873 20.2265 18.174V16.7518C19.8806 17.1784 19.3964 17.4629 18.843 17.4629C17.7362 17.4629 16.837 16.6096 16.837 15.4718V15.3296C16.7678 14.1919 17.6671 13.1963 18.7739 13.1252C19.3272 13.1252 19.8806 13.4097 20.2265 13.8363V12.4141C19.8115 12.1297 19.2581 12.0586 18.7739 12.0586C16.9753 11.9164 15.5919 13.4097 15.5919 15.2585ZM13.4475 14.4763C12.7557 14.1919 12.5482 14.0496 12.5482 13.6941C12.6174 13.2674 12.9632 12.9119 13.3783 12.983C13.7241 12.983 14.07 13.1963 14.3467 13.4808L14.9693 12.6274C14.4851 12.2008 13.8625 11.9164 13.2399 11.9164C12.2715 11.8452 11.4414 12.6274 11.3722 13.623V13.6941C11.3722 14.5474 11.7181 15.0452 12.8249 15.4007C13.1016 15.4718 13.3783 15.614 13.655 15.7563C13.8625 15.8985 14.0008 16.1118 14.0008 16.3962C14.0008 16.894 13.5858 17.3207 13.1708 17.3207H13.1016C12.5482 17.3207 12.064 16.9651 11.8565 16.4673L11.0955 17.2495C11.5106 18.0317 12.3407 18.4584 13.1708 18.4584C14.2775 18.5295 15.1768 17.6762 15.246 16.5385V16.3251C15.1768 15.4718 14.8309 15.0452 13.4475 14.4763ZM9.43531 18.3873H10.6113V12.0586H9.43531V18.3873ZM3.97058 12.0586H5.69993H6.0458C7.70597 12.1297 9.02028 13.5519 8.9511 15.2585C8.9511 16.1829 8.53606 17.0362 7.84432 17.6762C7.22175 18.174 6.46084 18.4584 5.69993 18.3873H3.97058V12.0586ZM5.49248 17.3206C6.04587 17.3917 6.66844 17.1784 7.08348 16.8229C7.49852 16.3962 7.70604 15.8273 7.70604 15.1873C7.70604 14.6185 7.49852 14.0496 7.08348 13.6229C6.66844 13.2674 6.04587 13.0541 5.49248 13.1252H5.14661V17.3206H5.49248Z" fill="white"/>
<path fill-rule="evenodd" clip-rule="evenodd" d="M23.7544 11.9119C22.025 11.9119 20.5724 13.334 20.5724 15.1829C20.5724 16.9606 21.9559 18.4539 23.7544 18.525C25.5529 18.5961 26.9364 17.1028 27.0056 15.254C26.9364 13.4052 25.5529 11.9119 23.7544 11.9119V11.9119Z" fill="#FD6020"/>
</svg>
