<svg width="61" height="32" viewBox="0 0 61 32" fill="none" xmlns="http://www.w3.org/2000/svg">
<path fill-rule="evenodd" clip-rule="evenodd" d="M26.1014 27.7551C23.5174 29.8774 20.1029 31.1692 16.5037 31.1692C8.01343 31.1692 1.20744 24.3399 1.20744 15.9653C1.20744 7.56744 8.01343 0.738103 16.5037 0.738103C22.1332 0.738103 27.0245 3.78355 29.7006 8.39789C30.0696 8.49024 30.3467 8.58259 30.7154 8.67494C28.0397 3.50685 22.6869 0 16.5037 0C7.64404 0 0.468994 7.10604 0.468994 15.9653C0.468994 24.802 7.64438 32 16.5037 32C20.6566 32 24.4402 30.3391 27.3012 27.7551H26.1014Z" fill="#CCCCCC"/>
<path fill-rule="evenodd" clip-rule="evenodd" d="M18.534 27.017H60.4084V20.7415H18.534V27.017Z" fill="#CCCCCC"/>
<path fill-rule="evenodd" clip-rule="evenodd" d="M20.6563 9.50484L20.4716 10.3356H18.4413C17.8876 16.2422 17.5185 21.0175 17.1494 23.2329C16.319 27.2011 12.6275 29.4158 10.2281 29.4158C9.39766 29.4158 8.38251 29.047 8.38251 28.0319C8.38251 27.4781 8.84391 27.0167 9.39766 27.0167C10.2281 27.0167 10.8742 27.6625 11.3356 28.4006C12.6278 27.6625 12.8122 27.0168 13.3659 24.4324C13.6429 23.2329 14.381 14.6729 14.7501 10.3356H13.0889L13.2736 9.50484H14.9348L15.1195 8.02863C16.0423 2.58384 20.0105 1.93774 21.4874 1.93774C22.2255 1.93774 23.7021 2.3068 23.7021 3.32194C23.7021 3.9677 23.1483 4.24474 22.5946 4.24474C21.5794 4.24474 21.118 3.691 20.6563 2.8602C18.995 3.59865 18.7183 7.65924 18.5336 9.5045H20.6563V9.50484ZM20.4719 17.0723C20.4719 12.7353 23.2407 8.95143 27.947 8.95143C30.9005 8.95143 32.561 10.2436 32.561 13.1044C32.561 17.4417 29.7926 21.1102 25.0859 21.1102C22.1332 21.1102 20.4719 19.818 20.4719 17.0723ZM28.7778 13.7505C28.7778 12.643 28.6855 9.96693 27.0246 9.96693C24.6252 9.96693 24.2558 14.6733 24.2558 16.4269C24.2558 17.442 24.3482 20.1878 26.0091 20.1878C28.4084 20.1874 28.7778 15.5037 28.7778 13.7505ZM33.5765 17.0723C33.5765 12.7353 36.4376 8.95143 41.144 8.95143C44.0051 8.95143 45.735 10.2436 45.735 13.1044C45.735 17.4417 42.8972 21.1102 38.1909 21.1102C35.3298 21.1102 33.5765 19.818 33.5765 17.0723ZM41.9744 13.7505C41.9744 12.643 41.8824 9.96693 40.2212 9.96693C37.7295 9.96693 37.4528 14.6733 37.4528 16.4269C37.4528 17.442 37.4528 20.1878 39.1137 20.1878C41.605 20.1874 41.9744 15.5037 41.9744 13.7505ZM60.0397 19.726C58.3781 20.4641 56.3478 21.1099 54.964 21.1099C54.2259 21.1099 54.3176 20.002 54.3176 19.541C54.3176 18.9879 54.3176 18.2488 54.5026 16.7959L54.4099 16.7032C53.4871 18.6182 51.6415 21.1099 49.2421 21.1099C47.3962 21.1099 46.5654 19.1719 46.5654 17.534C46.5654 13.4731 49.7952 9.13613 54.4099 9.13613H55.3327C55.7021 6.27504 55.7021 5.07554 55.7021 4.1524C55.7021 3.87569 55.7021 3.59865 55.425 3.59865C55.148 3.59865 54.7793 3.691 53.8561 3.9677L53.6718 3.2296C55.5177 2.58384 57.548 2.21445 59.3933 2.1221C59.5783 2.1221 59.6703 2.1221 59.6703 2.49115C59.6703 4.8905 57.8244 17.4413 57.8244 18.7109C57.8244 18.9879 57.8244 19.449 58.1938 19.449C58.3781 19.449 59.0246 19.2639 59.7627 18.9876L60.0397 19.726ZM54.0405 15.7808C54.6869 14.2119 54.8713 12.643 55.2407 10.2436C55.0556 10.1509 54.8713 10.1509 54.7793 10.1509C51.9182 10.1509 50.5337 14.3962 50.5337 16.7032C50.5337 17.257 50.6263 18.6182 51.4568 18.6182C52.6566 18.6185 53.6718 16.7036 54.0405 15.7808Z" fill="#CCCCCC"/>
<path fill-rule="evenodd" clip-rule="evenodd" d="M21.0257 22.2176H22.0408L23.3327 24.1555V22.2176H24.1635V25.9088H23.425L21.8561 23.7868V25.9088H21.0257V22.2176ZM26.5625 22.2176H29.4236V22.956H27.67V23.6014H28.7778V24.4322H27.67V25.078H29.4236V25.9088H26.5625V22.2176ZM32.4693 22.956H31.4542V22.2176H34.5916V22.956H33.5765V25.9088H32.4693V22.956ZM36.4376 22.2176H37.5444L38.0065 24.1555H38.0982L38.5595 22.2176H39.483L39.9441 24.1555H40.0368L40.4982 22.2176H41.3283L40.4055 25.9088H39.483L38.9289 23.8785L38.3752 25.9088H37.4527L36.4376 22.2176ZM45.0892 26.0015C44.005 26.0015 43.2666 25.2634 43.2666 24.0632C43.2666 22.8637 44.0047 22.1252 45.0892 22.1252C46.197 22.1252 46.8424 22.8633 46.8424 24.0632C46.8424 25.263 46.1967 26.0015 45.0892 26.0015ZM44.4434 24.0628C44.4434 25.078 44.7205 25.263 45.0892 25.263C45.4586 25.263 45.7349 25.078 45.7349 24.0628C45.7349 23.0484 45.4586 22.8633 45.0892 22.8633C44.6278 22.8633 44.4434 23.1404 44.4434 24.0628ZM49.0571 22.2176H50.903C52.1025 22.2176 52.3796 22.7707 52.3796 23.2327C52.3796 23.6941 52.1025 24.0628 51.6415 24.1555L52.3796 25.9088H51.1801L50.6263 24.3399H50.1649V25.9088H49.0571V22.2176ZM50.1649 23.6941H50.7187C50.995 23.6941 51.2724 23.5091 51.2724 23.3247C51.2724 23.0484 51.0874 22.8633 50.7187 22.8633H50.1649V23.6941ZM54.6869 22.2176H55.7944V23.6941L56.9016 22.2176H57.9167L56.9939 23.4171L58.1011 25.9088H56.9939L56.2558 24.3399L55.7944 24.9863V25.9088H54.6869V22.2176Z" fill="white"/>
</svg>
