<svg width="32" height="32" viewBox="0 0 32 32" fill="none" xmlns="http://www.w3.org/2000/svg">
<path d="M16.0027 28.0546C12.7227 28.0546 12.336 28.0373 11.056 27.9813C10.0578 27.9485 9.07259 27.7455 8.14269 27.3813C7.34693 27.0716 6.62426 26.5998 6.02058 25.9959C5.4169 25.392 4.9454 24.6691 4.63602 23.8733C4.28576 22.94 4.09684 21.9539 4.07735 20.9573C4.00269 19.6799 4.00269 19.2613 4.00269 16.0066C4.00269 12.7173 4.02002 12.3333 4.07735 11.0599C4.09727 10.0646 4.28618 9.07994 4.63602 8.14792C4.94504 7.35104 5.41686 6.62736 6.02134 6.02311C6.62583 5.41886 7.34968 4.94731 8.14669 4.63859C9.07821 4.28686 10.0631 4.09745 11.0587 4.07859C12.332 4.00659 12.7507 4.00659 16.0027 4.00659C19.3094 4.00659 19.6894 4.02392 20.9494 4.07859C21.9467 4.09726 22.936 4.28659 23.8694 4.63859C24.6661 4.94767 25.3898 5.41934 25.9943 6.02355C26.5987 6.62775 27.0706 7.35125 27.38 8.14792C27.736 9.09459 27.9267 10.0946 27.9414 11.1039C28.016 12.3813 28.016 12.7986 28.016 16.0519C28.016 19.3053 27.9974 19.7319 27.9414 20.9946C27.9214 21.9922 27.7321 22.9791 27.3814 23.9133C27.0712 24.7097 26.5988 25.4329 25.9942 26.0371C25.3896 26.6412 24.666 27.113 23.8694 27.4226C22.936 27.7719 21.9507 27.9613 20.9547 27.9813C19.6814 28.0546 19.264 28.0546 16.0027 28.0546ZM15.9574 6.11726C12.696 6.11726 12.3574 6.13326 11.084 6.19059C10.3236 6.20053 9.57042 6.34079 8.85735 6.60526C8.33726 6.80461 7.86471 7.11074 7.47017 7.5039C7.07563 7.89706 6.76786 8.36853 6.56669 8.88792C6.30002 9.60792 6.16002 10.3693 6.15202 11.1373C6.08135 12.4293 6.08135 12.7679 6.08135 16.0066C6.08135 19.2066 6.09335 19.5946 6.15202 20.8786C6.16402 21.6386 6.30402 22.3919 6.56669 23.1053C6.97469 24.1546 7.80669 24.9839 8.85869 25.3866C9.57083 25.6527 10.3238 25.793 11.084 25.8013C12.3747 25.8759 12.7147 25.8759 15.9574 25.8759C19.228 25.8759 19.5667 25.8599 20.8294 25.8013C21.5899 25.7921 22.3432 25.6518 23.056 25.3866C23.5733 25.1857 24.0432 24.8794 24.4357 24.4871C24.8282 24.0948 25.1348 23.6251 25.336 23.1079C25.6027 22.3879 25.7427 21.6253 25.7507 20.8573H25.7654C25.8227 19.5826 25.8227 19.2426 25.8227 15.9853C25.8227 12.7279 25.808 12.3853 25.7507 11.1119C25.7386 10.3525 25.5984 9.60063 25.336 8.88792C25.1353 8.36999 24.8289 7.89953 24.4364 7.50652C24.0438 7.11352 23.5737 6.80658 23.056 6.60526C22.3427 6.33859 21.5894 6.19992 20.8294 6.19059C19.54 6.11726 19.2027 6.11726 15.9574 6.11726ZM16.0027 22.1653C14.7834 22.166 13.5914 21.8052 12.5772 21.1285C11.563 20.4517 10.7724 19.4894 10.3052 18.3632C9.83798 17.237 9.71526 15.9976 9.95254 14.8017C10.1898 13.6057 10.7764 12.507 11.6382 11.6445C12.5 10.782 13.5981 10.1945 14.7939 9.95615C15.9896 9.71784 17.2291 9.83948 18.3557 10.3057C19.4823 10.7719 20.4453 11.5618 21.1229 12.5753C21.8006 13.5889 22.1624 14.7807 22.1627 15.9999C22.1606 17.6335 21.5111 19.1996 20.3565 20.3553C19.2018 21.5109 17.6363 22.1617 16.0027 22.1653ZM16.0027 11.9973C15.2116 11.9973 14.4382 12.2319 13.7804 12.6714C13.1226 13.1109 12.6099 13.7356 12.3072 14.4665C12.0044 15.1974 11.9252 16.0017 12.0795 16.7776C12.2339 17.5535 12.6148 18.2663 13.1743 18.8257C13.7337 19.3851 14.4464 19.7661 15.2223 19.9204C15.9982 20.0747 16.8025 19.9955 17.5334 19.6928C18.2643 19.39 18.889 18.8773 19.3286 18.2195C19.7681 17.5617 20.0027 16.7884 20.0027 15.9973C20.0002 14.9371 19.578 13.9212 18.8284 13.1716C18.0788 12.4219 17.0628 11.9997 16.0027 11.9973ZM22.4027 11.0466C22.2139 11.0459 22.0272 11.008 21.8531 10.9351C21.6789 10.8623 21.5209 10.7558 21.3879 10.6218C21.1193 10.3513 20.9693 9.98513 20.9707 9.60392C20.9721 9.22272 21.1249 8.85769 21.3954 8.58914C21.666 8.32059 22.0321 8.17051 22.4134 8.17193C22.7946 8.17334 23.1596 8.32613 23.4281 8.59668C23.6967 8.86723 23.8468 9.23339 23.8454 9.61459C23.8439 9.9958 23.6912 10.3608 23.4206 10.6294C23.15 10.8979 22.7839 11.048 22.4027 11.0466Z" fill="white"/>
</svg>
