<svg width="52" height="51" viewBox="0 0 52 51" fill="none" xmlns="http://www.w3.org/2000/svg">
<g clip-path="url(#clip0_1_7390)">
<path d="M48.95 5.94971H3.05C1.64172 5.94971 0.5 7.09133 0.5 8.49971V42.4997C0.5 43.908 1.64162 45.0497 3.05 45.0497H48.95C50.3583 45.0497 51.5 43.9081 51.5 42.4997V8.49971C51.5 7.09143 50.3584 5.94971 48.95 5.94971ZM49.8 42.4998C49.8 42.9692 49.4195 43.3497 48.95 43.3497H3.05C2.58054 43.3497 2.20003 42.9692 2.20003 42.4998V8.49971C2.20003 8.03025 2.58054 7.64974 3.05 7.64974H48.95C49.4195 7.64974 49.8 8.03025 49.8 8.49971V42.4998Z" fill="#2C742F"/>
<path d="M47.3244 9.35314C47.0998 9.33351 46.8766 9.40394 46.7039 9.54897L27.0943 26.0219C26.4619 26.5535 25.5388 26.5535 24.9064 26.0219L5.29703 9.54887C5.06444 9.35363 4.74529 9.29725 4.45991 9.40105C4.17453 9.50484 3.96614 9.75307 3.91335 10.0522C3.86056 10.3513 3.97132 10.6558 4.20391 10.8511L23.8134 27.3232C25.0773 28.3873 26.9236 28.3873 28.1876 27.3232L47.797 10.8512C47.9697 10.7062 48.0777 10.4986 48.0973 10.274C48.1169 10.0494 48.0465 9.82618 47.9014 9.65356C47.7566 9.48074 47.549 9.37276 47.3244 9.35314Z" fill="#2C742F"/>
<path d="M16.8483 27.2057C16.5474 27.1386 16.2338 27.2396 16.0286 27.4697L4.12856 40.2197C3.91321 40.4402 3.83412 40.7602 3.92197 41.0556C4.00983 41.3512 4.25079 41.5759 4.55161 41.643C4.85253 41.7101 5.1661 41.6091 5.37129 41.379L17.2713 28.629C17.4867 28.4085 17.5658 28.0886 17.4779 27.7931C17.3901 27.4977 17.1492 27.2729 16.8483 27.2057Z" fill="#2C742F"/>
<path d="M35.9709 27.4697C35.7658 27.2396 35.4521 27.1386 35.1512 27.2057C34.8503 27.2729 34.6094 27.4977 34.5216 27.7931C34.4337 28.0887 34.5128 28.4085 34.7282 28.629L46.6282 41.3791C46.9509 41.7096 47.4785 41.7219 47.8162 41.4067C48.154 41.0916 48.1783 40.5644 47.8709 40.2196L35.9709 27.4697Z" fill="#2C742F"/>
</g>
<defs>
<clipPath id="clip0_1_7390">
<rect width="51" height="51" fill="white" transform="translate(0.5)"/>
</clipPath>
</defs>
</svg>
