<svg width="45" height="32" viewBox="0 0 45 32" fill="none" xmlns="http://www.w3.org/2000/svg">
<rect x="0.5" y="0.5" width="44" height="30.7647" rx="4.79412" fill="#1A1A1A" stroke="#333333"/>
<path fill-rule="evenodd" clip-rule="evenodd" d="M22.7369 22.2741C21.1698 23.5951 19.1369 24.3925 16.9156 24.3925C11.9592 24.3925 7.94116 20.4223 7.94116 15.5249C7.94116 10.6274 11.9592 6.65723 16.9156 6.65723C19.1369 6.65723 21.1698 7.45467 22.7369 8.77564C24.3041 7.45468 26.3369 6.65725 28.5582 6.65725C33.5147 6.65725 37.5327 10.6274 37.5327 15.5249C37.5327 20.4224 33.5147 24.3925 28.5582 24.3925C26.3369 24.3925 24.304 23.5951 22.7369 22.2741Z" fill="#ED0006"/>
<path fill-rule="evenodd" clip-rule="evenodd" d="M22.7369 22.2742C24.6665 20.6477 25.8901 18.2275 25.8901 15.5249C25.8901 12.8223 24.6665 10.402 22.7369 8.77555C24.304 7.45464 26.3368 6.65723 28.5581 6.65723C33.5145 6.65723 37.5325 10.6274 37.5325 15.5249C37.5325 20.4223 33.5145 24.3925 28.5581 24.3925C26.3368 24.3925 24.304 23.5951 22.7369 22.2742Z" fill="#F9A000"/>
<path fill-rule="evenodd" clip-rule="evenodd" d="M22.7369 22.2741C24.6665 20.6476 25.8901 18.2275 25.8901 15.5249C25.8901 12.8223 24.6665 10.4021 22.7369 8.77563C20.8073 10.4021 19.5838 12.8223 19.5838 15.5249C19.5838 18.2275 20.8073 20.6476 22.7369 22.2741Z" fill="#FF5E00"/>
</svg>
