<svg width="16" height="18" viewBox="0 0 16 18" fill="none" xmlns="http://www.w3.org/2000/svg">
<path d="M8.24465 0C3.3113 0 0.687683 3.16139 0.687683 6.60855C0.687683 8.20724 1.58097 10.2008 3.01091 10.8331C3.22805 10.931 3.34618 10.8894 3.39455 10.688C3.43731 10.535 3.62519 9.79807 3.71632 9.45042C3.74445 9.33904 3.72982 9.24229 3.63982 9.13766C3.16504 8.58864 2.78815 7.58847 2.78815 6.65017C2.78815 4.24594 4.69961 1.91146 7.95213 1.91146C10.7648 1.91146 12.7325 3.73854 12.7325 6.35204C12.7325 9.30529 11.1698 11.3484 9.13906 11.3484C8.01514 11.3484 7.1781 10.4663 7.44361 9.37505C7.76425 8.07561 8.39315 6.6783 8.39315 5.74113C8.39315 4.90072 7.91838 4.20544 6.94859 4.20544C5.80441 4.20544 4.87625 5.33837 4.87625 6.85943C4.87625 7.82585 5.21826 8.47838 5.21826 8.47838C5.21826 8.47838 4.08646 13.0506 3.87608 13.9045C3.52056 15.3502 3.92445 17.6914 3.95933 17.8928C3.98071 18.0042 4.10559 18.0391 4.17534 17.9479C4.28672 17.8017 5.65478 15.8497 6.03842 14.4389C6.17793 13.9248 6.75058 11.84 6.75058 11.84C7.12747 12.5207 8.2154 13.0911 9.3742 13.0911C12.8214 13.0911 15.3122 10.0613 15.3122 6.30141C15.2998 2.69675 12.2149 0 8.24465 0Z" fill="#4D4D4D"/>
</svg>
