<svg width="45" height="32" viewBox="0 0 45 32" fill="none" xmlns="http://www.w3.org/2000/svg">
<rect x="0.5" y="0.5" width="44" height="30.7647" rx="4.79412" fill="#1A1A1A" stroke="#333333"/>
<path fill-rule="evenodd" clip-rule="evenodd" d="M14.2283 20.9887H11.5022L9.45794 12.9603C9.36091 12.591 9.15489 12.2645 8.85184 12.1107C8.09554 11.724 7.26215 11.4162 6.353 11.261V10.9519H10.7446C11.3507 10.9519 11.8053 11.4162 11.881 11.9554L12.9417 17.7466L15.6665 10.9519H18.3169L14.2283 20.9887ZM19.8322 20.9887H17.2576L19.3776 10.9519H21.9522L19.8322 20.9887ZM25.283 13.7324C25.3587 13.1919 25.8133 12.8828 26.3436 12.8828C27.177 12.8052 28.0849 12.9604 28.8425 13.3457L29.2971 11.1848C28.5394 10.8757 27.706 10.7205 26.9497 10.7205C24.4509 10.7205 22.6326 12.1107 22.6326 14.0402C22.6326 15.508 23.9206 16.2788 24.8297 16.7431C25.8133 17.206 26.1921 17.5151 26.1164 17.9781C26.1164 18.6726 25.3587 18.9816 24.6024 18.9816C23.6933 18.9816 22.7841 18.7502 21.9521 18.3635L21.4975 20.5258C22.4066 20.9111 23.3902 21.0663 24.2994 21.0663C27.1013 21.1426 28.8425 19.7537 28.8425 17.669C28.8425 15.0437 25.283 14.8899 25.283 13.7324ZM37.8529 20.9887L35.8087 10.9519H33.6129C33.1583 10.9519 32.7037 11.261 32.5522 11.724L28.7667 20.9887H31.4171L31.9461 19.5222H35.2026L35.5056 20.9887H37.8529ZM33.9918 13.6549L34.7481 17.4376H32.6281L33.9918 13.6549Z" fill="white"/>
</svg>
